<?xml version="1.0" encoding="utf-8"?>
<!-- Generator: Adobe Illustrator 23.0.5, SVG Export Plug-In . SVG Version: 6.00 Build 0)  -->
<svg version="1.1" id="Layer_1" xmlns="http://www.w3.org/2000/svg" xmlns:xlink="http://www.w3.org/1999/xlink" x="0px" y="0px"
	 viewBox="0 0 16 16" style="enable-background:new 0 0 16 16;" xml:space="preserve">
<style type="text/css">
	.st0{clip-path:url(#SVGID_2_);}
	.st1{fill:#8AB683;}
</style>
<g>
	<defs>
		<rect id="SVGID_1_" x="0.5" y="0.5" width="15" height="15"/>
	</defs>
	<clipPath id="SVGID_2_">
		<use xlink:href="#SVGID_1_"  style="overflow:visible;"/>
	</clipPath>
	<g class="st0">
		<path class="st1" d="M8,1.9c2,0,2.2,0,3,0c0.5,0,0.9,0.1,1.4,0.3c0.3,0.1,0.6,0.3,0.9,0.6c0.2,0.2,0.4,0.5,0.6,0.9
			C14,4,14.1,4.5,14.1,5c0,0.8,0,1,0,3c0,2,0,2.2,0,3c0,0.5-0.1,0.9-0.3,1.4c-0.1,0.3-0.3,0.6-0.6,0.9c-0.2,0.2-0.5,0.4-0.9,0.6
			C12,14,11.5,14.1,11,14.1c-0.8,0-1,0-3,0c-2,0-2.2,0-3,0c-0.5,0-0.9-0.1-1.4-0.3c-0.3-0.1-0.6-0.3-0.9-0.6
			c-0.2-0.2-0.4-0.5-0.6-0.9C2,12,1.9,11.5,1.9,11c0-0.8,0-1,0-3c0-2,0-2.2,0-3c0-0.5,0.1-1,0.3-1.4C2.3,3.2,2.5,3,2.7,2.7
			C3,2.5,3.3,2.3,3.6,2.1C4,2,4.5,1.9,5,1.9C5.8,1.8,6,1.8,8,1.9L8,1.9z M8,0.5c-2,0-2.3,0-3.1,0.1c-0.6,0-1.2,0.1-1.8,0.4
			c-0.5,0.2-1,0.5-1.3,0.9C1.4,2.1,1.1,2.6,0.9,3.1C0.7,3.7,0.6,4.3,0.5,4.9c0,0.8,0,1.1,0,3.1s0,2.3,0,3.1c0,0.6,0.1,1.2,0.4,1.8
			c0.2,0.5,0.5,1,0.9,1.3c0.4,0.4,0.8,0.7,1.3,0.9c0.6,0.2,1.2,0.3,1.8,0.4c0.8,0,1.1,0,3.1,0c2,0,2.3,0,3.1,0
			c0.6,0,1.2-0.1,1.8-0.4c0.5-0.2,1-0.5,1.3-0.9s0.7-0.8,0.9-1.3c0.2-0.6,0.3-1.2,0.4-1.8c0-0.8,0-1.1,0-3.1c0-2,0-2.3,0-3.1
			c0-0.6-0.1-1.2-0.4-1.8c-0.2-0.5-0.5-1-0.9-1.3c-0.4-0.4-0.8-0.7-1.3-0.9c-0.6-0.2-1.2-0.3-1.8-0.4C10.3,0.5,10,0.5,8,0.5"/>
		<path class="st1" d="M8,4.2c-0.8,0-1.5,0.2-2.1,0.6c-0.6,0.4-1.1,1-1.4,1.7C4.1,7.2,4.1,8,4.2,8.8s0.5,1.4,1.1,2
			c0.5,0.5,1.2,0.9,2,1.1c0.7,0.1,1.5,0.1,2.2-0.2c0.7-0.3,1.3-0.8,1.7-1.4c0.4-0.6,0.6-1.4,0.6-2.1c0-1-0.4-2-1.1-2.7
			C10,4.6,9,4.2,8,4.2z M8,10.5c-0.5,0-1-0.1-1.4-0.4C6.2,9.8,5.9,9.4,5.7,9C5.5,8.5,5.4,8,5.5,7.5C5.6,7,5.9,6.6,6.2,6.2
			C6.6,5.9,7,5.6,7.5,5.5c0.5-0.1,1,0,1.4,0.1c0.5,0.2,0.8,0.5,1.1,0.9C10.4,7,10.5,7.5,10.5,8c0,0.3-0.1,0.7-0.2,1
			C10.2,9.3,10,9.5,9.8,9.8C9.5,10,9.3,10.2,9,10.3C8.7,10.4,8.3,10.5,8,10.5z"/>
		<path class="st1" d="M12.9,4c0,0.2-0.1,0.4-0.1,0.5c-0.1,0.1-0.2,0.3-0.4,0.3c-0.2,0.1-0.3,0.1-0.5,0.1c-0.2,0-0.3-0.1-0.5-0.2
			c-0.1-0.1-0.2-0.3-0.2-0.5c0-0.2,0-0.4,0.1-0.5c0.1-0.2,0.2-0.3,0.3-0.4c0.1-0.1,0.3-0.2,0.5-0.2c0.1,0,0.2,0,0.3,0.1
			c0.1,0,0.2,0.1,0.3,0.2c0.1,0.1,0.2,0.2,0.2,0.3C12.9,3.8,12.9,3.9,12.9,4z"/>
	</g>
</g>
</svg>
