<?xml version="1.0" encoding="utf-8"?>
<!-- Generator: Adobe Illustrator 23.0.5, SVG Export Plug-In . SVG Version: 6.00 Build 0)  -->
<svg version="1.1" id="Layer_1" xmlns="http://www.w3.org/2000/svg" xmlns:xlink="http://www.w3.org/1999/xlink" x="0px" y="0px"
	 viewBox="0 0 16 16" style="enable-background:new 0 0 16 16;" xml:space="preserve">
<style type="text/css">
	.st0{clip-path:url(#SVGID_2_);}
	.st1{fill:#8AB683;}
</style>
<g>
	<defs>
		<rect id="SVGID_1_" x="0.5" y="0.5" width="15" height="15"/>
	</defs>
	<clipPath id="SVGID_2_">
		<use xlink:href="#SVGID_1_"  style="overflow:visible;"/>
	</clipPath>
	<g class="st0">
		<path class="st1" d="M3.9,5.5H0.8v10h3.1V5.5z"/>
		<path class="st1" d="M2.3,4.2c0.4,0,0.7-0.1,1-0.3C3.7,3.7,3.9,3.4,4,3.1C4.2,2.7,4.2,2.4,4.2,2S3.9,1.3,3.7,1
			C3.4,0.8,3.1,0.6,2.7,0.5C2.4,0.5,2,0.5,1.6,0.6S1,1,0.8,1.3C0.6,1.6,0.5,2,0.5,2.3c0,0.2,0,0.5,0.1,0.7C0.7,3.3,0.9,3.5,1,3.6
			C1.2,3.8,1.4,4,1.6,4.1C1.9,4.1,2.1,4.2,2.3,4.2z"/>
		<path class="st1" d="M8.8,10.3C8.8,8.8,9.5,8,10.7,8c1.2,0,1.7,0.8,1.7,2.2v5.2h3.1V9.1c0-2.7-1.5-3.9-3.6-3.9
			c-0.6,0-1.2,0.1-1.7,0.4c-0.5,0.3-1,0.7-1.3,1.2V5.5h-3v10h3V10.3z"/>
	</g>
</g>
</svg>
