<?xml version="1.0" encoding="utf-8"?>
<!-- Generator: Adobe Illustrator 23.0.5, SVG Export Plug-In . SVG Version: 6.00 Build 0)  -->
<svg version="1.1" id="Layer_1" xmlns="http://www.w3.org/2000/svg" xmlns:xlink="http://www.w3.org/1999/xlink" x="0px" y="0px"
	 viewBox="0 0 18 14" style="enable-background:new 0 0 18 14;" xml:space="preserve">
<style type="text/css">
	.st0{clip-path:url(#SVGID_2_);}
	.st1{fill:#8AB683;}
</style>
<g>
	<defs>
		<rect id="SVGID_1_" x="0.5" y="0.5" width="17" height="13"/>
	</defs>
	<clipPath id="SVGID_2_">
		<use xlink:href="#SVGID_1_"  style="overflow:visible;"/>
	</clipPath>
	<g class="st0">
		<path class="st1" d="M0.5,12c1.6,1,3.5,1.5,5.3,1.5c1.3,0,2.7-0.2,3.9-0.7c1.2-0.5,2.4-1.2,3.3-2.1c0.9-0.9,1.6-2,2.1-3.2
			c0.5-1.2,0.7-2.4,0.6-3.7c0.7-0.4,1.3-1,1.7-1.7c-0.6,0.3-1.3,0.4-2,0.5c0.7-0.4,1.3-1.1,1.5-1.9c-0.7,0.4-1.4,0.6-2.2,0.8
			c-0.5-0.5-1.2-0.9-2-1c-0.8-0.1-1.5,0-2.2,0.4C10,1.2,9.4,1.8,9.1,2.4C8.8,3.1,8.7,3.8,8.9,4.5c-1.4-0.1-2.7-0.4-4-1
			C3.7,2.9,2.6,2.1,1.7,1.1C1.2,1.8,1.1,2.7,1.3,3.5C1.5,4.3,2,5,2.8,5.5c-0.6,0-1.1-0.2-1.6-0.4c0,0.8,0.3,1.5,0.8,2.1
			c0.5,0.6,1.2,1,2,1.2C3.5,8.5,2.9,8.5,2.4,8.4C2.6,9,3.1,9.6,3.6,10c0.6,0.4,1.3,0.6,2,0.6C4.2,11.7,2.3,12.2,0.5,12L0.5,12z"/>
	</g>
</g>
</svg>
